# xmcd
#
# Track frame offsets: 
#        150
#        13182
#        23872
#        34065
#        45765
#        50302
#        63545
#        73720
#        85965
#        95990
#        112970
#        127550
#        137945
#        149052
#        160145
#        177980
#        187482
#        200642
#        216547
#        235252
#        249975
#        260625
#
# Disc length: 3534 seconds
#
# Revision: 2
# Processed by: cddbd v1.5.2PL0 Copyright (c) Steve Scherf et al.
# Submitted via: ExactAudioCopy v1.0b3
#
DISCID=4f0dcc16
DTITLE=Various Artist - TV-CM's Greatest Hits
DYEAR=2002
DGENRE=Oldies
TTITLE0=朱里エイコ - イエ・イエ <レナウン>
TTITLE1=真理アンヌ - 太陽ハント <レナウン>
TTITLE2=クラウディア - 恋のカローラ <トヨタ自動車>
TTITLE3=パープル・シャドウズ - 瞳の世界 <ロッテ>
TTITLE4=ザ・ワイルド・ワンズ - 楽しい旅に行こう <コカ・コーラ>
TTITLE5=斉藤任弘 - マンダム〜男の世界 <Mandom-Lovers Of The World>
TTITLE6=シンガーズ・スリー＋ヴォーカル・ショップ - ラブリー・チェリー <日産自動車>
TTITLE7=ジョーン・シェパード - サマー・クリエイション <マックスファクター>
TTITLE8=シング・アウト - コカ・コーラの歌
TTITLE9=マイク真木 - 気楽に行こう <モービル石油>
TTITLE10=フィフィ・ザ・フリー - すばらしきGt <宮田工業>
TTITLE11=加藤和彦 - 家を作るなら <ナショナル住宅>
TTITLE12=笠井紀美子 - キャンピングカー・キャラベルエアー <フランス・ベッド>
TTITLE13=スクール・メイツ - 愛するハニー <コカ・コーラ>
TTITLE14=ハニー・ナイツ - ふりむかないで <ライオン>
TTITLE15=山田 仁 - 山チャン音頭　<サントリー>
TTITLE16=ハニー・ナイツ - あなたのためなら <ライオン>
TTITLE17=Buzz（バズ） - ケンとメリー 〜愛と風のように〜 <日産自動車>
TTITLE18=かまやつひろし - 乱れたら <ライオン>
TTITLE19=トランザム - カモン・イン <コカ・コーラ>
TTITLE20=ハニー・ナイツ - 愛するハーモニー <コカ・コーラ>
TTITLE21=久美かおり - ワンサカ娘 <レナウン>
EXTD=
EXTT0=
EXTT1=
EXTT2=
EXTT3=
EXTT4=
EXTT5=
EXTT6=
EXTT7=
EXTT8=
EXTT9=
EXTT10=
EXTT11=
EXTT12=
EXTT13=
EXTT14=
EXTT15=
EXTT16=
EXTT17=
EXTT18=
EXTT19=
EXTT20=
EXTT21=
PLAYORDER=
